<?xml version="1.0" encoding="utf-8"?>
<!-- Svg Vector Icons : http://www.onlinewebfonts.com/icon -->
<!DOCTYPE svg PUBLIC "-//W3C//DTD SVG 1.1//EN" "http://www.w3.org/Graphics/SVG/1.1/DTD/svg11.dtd">
<svg version="1.1" xmlns="http://www.w3.org/2000/svg" xmlns:xlink="http://www.w3.org/1999/xlink" x="0px" y="0px" viewBox="0 0 1000 1000" enable-background="new 0 0 1000 1000" xml:space="preserve">
<metadata> Svg Vector Icons : http://www.onlinewebfonts.com/icon </metadata>
<g><g transform="translate(0.000000,511.000000) scale(0.100000,-0.100000)"><path d="M6631.4,4685.4c-57.5-15.3-130.2-44-162.8-65.1c-32.5-19.1-1194.8-1171.9-2581.2-2560.1C1139.7-689.5,1292.9-522.9,1271.9-771.9c-9.6-139.8,28.7-285.3,109.1-392.5c109.2-149.4,1547.2-1652.5,1665.9-1742.5c155.1-116.8,507.4-294.9,662.5-333.2c162.8-42.1,1177.6-42.1,1336.5,0c222.1,57.5,478.7,189.6,697,358.1c120.6,91.9,3994.3,4005.8,4055.6,4099.6c68.9,99.6,111.1,270,99.6,396.4c-21.1,248.9,24.9,193.4-1399.7,1623.8C7780.3,3957.7,7158,4572.4,7114,4603c-76.6,53.6-260.4,114.9-340.8,111.1C6752.1,4714.1,6688.9,4700.7,6631.4,4685.4z M6566.3-1091.6c-7.7-26.8-1168-1225.5-1290.6-1334.6c-65.1-57.4-170.4-134-235.5-166.6l-118.7-63.2h-538.1c-518.9,0-543.8,1.9-647.2,44c-254.7,105.3-453.8,291.1-1681.2,1570.1l-180,187.7L2993.3,264.1l1118.3,1120.2L5340.9,154.9C6018.7-522.9,6570.2-1084,6566.3-1091.6z"/><path d="M100-4187.9v-306.4h4289.2h4289.2v306.4v306.4H4389.2H100V-4187.9z"/></g></g>
</svg>